<svg version="1" xmlns="http://www.w3.org/2000/svg" width="461.333" height="461.333" viewBox="0 0 346.000000 346.000000"><path d="M104.4 48c-.3.2-3.7.5-7.7.7-4 .1-9.7.4-12.7.7-3 .3-8.4.8-12 1.1-7.8.7-12.5 1.3-12.5 1.6 0 .2-2.3.6-7.5 1.2-1.9.3-4.6.7-6 1.1-1.4.3-3.8.8-5.5 1-1.6.2-4.3.8-5.8 1.5-1.5.6-3.1 1-3.5.9-.4-.1-3.3.4-6.5 1.1-6.4 1.4-9.1 4.1-8.3 8.4.3 1.5-.1 3.1-1 3.8-.8.6-1.4.8-1.4.5 0-.4-.9-.2-1.9.4-1.2.6-2.2.6-2.5.1-1.1-1.7-7.6.4-7.6 2.5 0 .8-.3 1.4-.7 1.4-.7 0-.7 165.8-.1 190.3.2 5.5 0 10.1-.5 10.4-.4.2-.5.9-.2 1.4.3.5.9 3 1.2 5.6.3 2.7.7 4.9.8 5.1.2.2 31.3.5 69.2.6 37.8.2 69.3.4 70 .5.6 0 1.4 1.9 1.8 4 .8 4.8-.7 4.6 29.9 4.6 22.4-.1 23.9-.2 25.2-2 .8-1.1 1.2-2.5 1-3.1-1.4-3.7.6-3.8 73-3.9 38.7-.1 70.7-.5 71.1-.9.8-.7 1.2-207.3.4-212.8-.3-2.6-.5-2.7-7.5-3l-7.1-.3-.3-5.3c-.3-4.7-.6-5.4-3-6.3-3.5-1.3-18.2-5.1-20.4-5.2-1-.1-1.8-.4-1.8-.7 0-.3-1.2-.6-2.7-.7-3.1-.2-7.8-.9-7.8-1.3 0-.1-1.1-.3-2.5-.4-1.4-.2-4.3-.6-6.5-.9-5.3-.9-16-1.9-21.2-2-2.4 0-4.3-.3-4.3-.6s-3.5-.7-7.8-.8c-25.8-.8-29.8-.9-30.7-.4-.5.4-2.8.7-5 .8-5.2.2-12.2 1.1-16 2-1.6.4-3.4.8-4 .9-4.4.5-11.3 3.1-18.5 6.8l-4.5 2.4-5-2.4c-2.7-1.4-5.1-2.4-5.3-2.4-.1 0-1.8-.7-3.8-1.5-2-.8-4.4-1.5-5.4-1.5-.9 0-2-.3-2.4-.7-.3-.4-1.6-.8-2.9-1-1.2-.1-3.3-.5-4.7-.7-7.5-1.4-10.1-1.7-15.7-1.9-3.5 0-6.3-.4-6.3-.7 0-.6-16-.7-16.6 0zm18.1 11.8c.5.4 3.5.7 6.5.8 3 .1 5.5.3 5.5.4 0 .1 1.1.3 2.5.5 6.1.6 12 1.9 19 4 2.4.8 6 2.8 8.5 4.8l2.9 2.5.1 93.2c0 69.6-.2 93.4-1.1 94.1-.8.6-3.5.1-8-1.7-10.6-4-11.6-4.3-22.4-6-12.8-2.1-31-2-50.5.1-3.3.4-7.3.8-9 1-1.6.2-3 .4-3 .5 0 .1-1.3.4-3 .5-1.6.2-4.6.6-6.5 1-1.9.4-4.8.9-6.5 1-1.6.1-3 .3-3 .4 0 .2-.7.4-1.7.6-.9.2-6.4 1.5-12.2 3-8.8 2.2-10.9 2.5-12.2 1.4-1.4-1.1-1.5-6.6-1-48.3.2-25.9.4-49.6.4-52.6-.1-5.2-.1-11.7.2-35 0-5.2-.1-10.6-.3-12-.2-1.4-.1-3 .2-3.5.9-1.8.9-3.5 0-4.1-.5-.3-.6-1.3-.1-2.2.9-1.9.7-19.7-.3-25.5-.9-5.1 1.3-8.4 6.2-9.4 2.1-.4 4-.8 4.3-.8.3-.1 1.9-.4 3.5-.8 1.7-.3 4.6-.9 6.5-1.1 1.9-.3 4.9-.8 6.5-1.2 1.7-.3 4.4-.7 6-1 1.7-.2 4.8-.7 7-1 2.2-.4 5.5-.7 7.2-.8 1.8 0 3.3-.4 3.3-.7 0-.3 2.4-.5 5.3-.4 2.8 0 5.7-.1 6.2-.4.6-.3 4.5-.6 8.8-.7 4.2 0 7.9-.3 8.2-.5.7-.7 14.9-.7 16-.1zm134 .6c2.2.3 7.2.8 11 1.1 3.9.2 8.1.7 9.5 1 1.4.3 3.9.8 5.5 1 1.7.2 4.4.7 6 1 1.7.3 3.7.6 4.5.6.8.1 2.9.5 4.5 1 1.7.4 4.9 1 7.1 1.3 6 .7 12 2.4 13.2 3.9.7.8 1 32.8.9 94.6 0 89.9-.1 93.5-1.9 95.3-1 1-2.3 1.6-2.8 1.3-1-.6-2.5-1-8.2-2-1.5-.3-3.9-1-5.3-1.5-1.5-.6-3.1-.8-3.6-.5-.5.3-1.8.1-2.9-.5-1.1-.6-4.2-1.3-6.8-1.6-5.7-.6-9.5-1.1-10.2-1.4-.3-.2-1.8-.4-3.5-.6-9.6-.9-13.6-1.3-18.5-1.9-6.4-.8-39.7-.9-45.5-.1-2.2.3-5.4.8-7.2 1-1.8.3-7.2 1.9-12 3.7-12.5 4.5-14.3 4.7-14.5 1.8-.4-5.6-.3-16.1.2-16.4.8-.5.4-155.6-.4-159.7-1.2-5.6.8-10.3 5.7-13.7 6.5-4.4 18.5-7.9 28.9-8.5 2-.1 3.9-.4 4.3-.7.7-.8 36.5-.3 42 .5zM121.7 262.5c6.5.3 12.9.7 14.3.9 7.7 1.3 9.7 1.7 12 2.9 3.5 1.7 4.2 3 2.2 4.2-2.1 1.3-85.6 1.7-88.9.4-1.3-.5-2.3-1.3-2.3-1.8 0-.9 5.2-2.9 8-3 .8 0 2.9-.3 4.5-.6 1.7-.3 5.5-.8 8.5-1.1 3-.2 7.5-.7 10-.9 2.5-.3 7.3-.6 10.7-.8 3.4-.1 6.5-.5 6.9-.9.4-.4 1-.5 1.5-.3.4.3 6.1.7 12.6 1zm116.9-.3c.5.3 3.5.4 6.7.3 3.1-.2 5.9.1 6.2.5.2.4 1.9.6 3.7.5 1.8-.2 3.7 0 4.3.3.8.5 6.5 1.1 12.7 1.3 1 0 2 .5 2.3 1 .4.5 1 .7 1.5.4.9-.6 3.5 2.3 2.7 3.1-.3.3-1.1.6-1.9.8-.7.1-1.7.4-2.3.8-1.6.9-75.7.1-79-.9l-3-.9 2.9-1.9c1.6-1.1 3.4-2 4-2.2.6-.1 2.2-.5 3.6-.8 3.9-1 8.9-1.5 17.3-1.9 4.3-.2 7.9-.5 8.2-.7.5-.6 9.1-.3 10.1.3z"/></svg>